# xmcd
#
# Track frame offsets:
# 150
# 13739
# 24402
# 35671
# 48207
# 68483
# 77971
# 90450
# 100278
# 116944
# 129760
# 143787
# 158239
#
# Disc length: 2324 seconds
#
#
# Revision: 0
# Processed by: cddbd v1.4PL0 Copyright (c) Steve Scherf et al.
# Submitted via: FreeRIP 2.21 
#
DISCID=a209120d
DTITLE=Vabank Unit - Jen kdyz to musi bejt
DYEAR=1900
DGENRE=Bluegrass
TTITLE0=Placu nad Tvou laskou
TTITLE1=Nechci Te mit
TTITLE2=Dal neotalej
TTITLE3=Lepsi je byt ranem
TTITLE4=Zla umis byt
TTITLE5=Na dvorku
TTITLE6=Tem z Vas
TTITLE7=Jen kdyz to musi bejt
TTITLE8=Me prani
TTITLE9=Nahodou
TTITLE10=Kentucky mandolin
TTITLE11=Tonu par
TTITLE12=Bida jde k nam
EXTD=
EXTT0=
EXTT1=
EXTT2=
EXTT3=
EXTT4=
EXTT5=
EXTT6=
EXTT7=
EXTT8=
EXTT9=
EXTT10=
EXTT11=
EXTT12=
PLAYORDER=
